<?xml version="1.0" standalone="no"?><!DOCTYPE svg PUBLIC "-//W3C//DTD SVG 1.1//EN" "http://www.w3.org/Graphics/SVG/1.1/DTD/svg11.dtd"><svg t="1642060132416" class="icon" viewBox="0 0 1024 1024" version="1.1" xmlns="http://www.w3.org/2000/svg" p-id="20337" xmlns:xlink="http://www.w3.org/1999/xlink" width="48" height="48"><defs><style type="text/css"></style></defs><path d="M888.561875 654.0875V369.9125c28.258125-7.3725 49.175625-33.1125 49.175625-63.646875 0-36.26625-29.505-65.769375-65.769375-65.769375-18.860625 0-35.88 7.993125-47.885625 20.75625l-151.891875-86.71875a14.17875 14.17875 0 0 0-19.34625 5.285625 14.180625 14.180625 0 0 0 5.285625 19.34625l151.41 86.44125a65.518125 65.518125 0 0 0 0.12 41.6775l-249.680625 144.15375c-12.075-14.52375-30.26625-23.788125-50.585625-23.788125-18.939375 0-36.02625 8.05875-48.0375 20.91375l-69.526875-39.78a14.180625 14.180625 0 0 0-14.083125 24.615l69.151875 39.564375a65.499375 65.499375 0 0 0-3.27375 20.4525c0 31.395 22.12125 57.70875 51.58875 64.213125v284.379375c-14.4525 3.189375-27.136875 11.139375-36.31125 22.125L213.063125 742.203125a65.375625 65.375625 0 0 0 4.74-24.46875c0-31.396875-22.12125-57.710625-51.58875-64.215V370.480625c13.021875-2.874375 24.6-9.615 33.474375-18.958125l127.145625 72.748125a14.175 14.175 0 0 0 19.351875-5.266875 14.17875 14.17875 0 0 0-5.265-19.35L214.356875 327.2375a65.47875 65.47875 0 0 0 3.448125-20.971875c0-6.9-1.074375-13.550625-3.054375-19.80375L465.63125 141.614375c12.0525 13.4475 29.53875 21.93 48.973125 21.93 18.290625 0 34.8525-7.509375 46.78875-19.603125l51.766875 29.55375a14.176875 14.176875 0 0 0 19.348125-5.285625 14.180625 14.180625 0 0 0-5.285625-19.34625l-50.694375-28.940625a65.446875 65.446875 0 0 0 3.8475-22.1475C580.37375 61.505 550.870625 32 514.604375 32c-36.26625 0-65.769375 29.505-65.769375 65.77125 0 6.658125 1.00125 13.081875 2.85 19.14375l-251.1375 144.995625c-12.035625-13.153125-29.326875-21.41625-48.51375-21.41625-36.26625 0-65.769375 29.505-65.769375 65.769375 0 31.396875 22.12125 57.710625 51.58875 64.215v283.036875c-29.4675 6.504375-51.58875 32.818125-51.58875 64.215 0 36.26625 29.505 65.769375 65.769375 65.769375 17.3775 0 33.1875-6.785625 44.960625-17.83125l248.840625 143.668125a65.675625 65.675625 0 0 0-2.20875 16.88625c0 36.268125 29.505 65.77125 65.769375 65.77125s65.769375-29.505 65.769375-65.77125c0-4.453125-0.45-8.803125-1.2975-13.00875l254.060625-146.68125c11.668125 10.539375 27.11625 16.96875 44.038125 16.96875 36.26625 0 65.769375-29.505 65.769375-65.769375 0.001875-30.534375-20.9175-56.2725-49.17375-63.645zM514.604375 60.36125c20.626875 0 37.408125 16.783125 37.408125 37.41s-16.78125 37.408125-37.408125 37.408125c-20.626875 0-37.408125-16.78125-37.408125-37.408125s16.78125-37.41 37.408125-37.41zM114.62375 306.265625c0-20.626875 16.78125-37.408125 37.408125-37.408125s37.408125 16.78125 37.408125 37.408125-16.78125 37.41-37.408125 37.41-37.408125-16.783125-37.408125-37.41z m37.408125 448.876875c-20.626875 0-37.408125-16.78125-37.408125-37.408125s16.78125-37.41 37.408125-37.41 37.408125 16.783125 37.408125 37.41-16.779375 37.408125-37.408125 37.408125z m719.934375-486.285c20.626875 0 37.408125 16.78125 37.408125 37.408125s-16.78125 37.41-37.408125 37.41-37.408125-16.783125-37.408125-37.41 16.78125-37.408125 37.408125-37.408125zM471.985625 513.419375c0-20.626875 16.78125-37.408125 37.408125-37.408125 20.626875 0 37.408125 16.78125 37.408125 37.408125 0 20.626875-16.78125 37.408125-37.408125 37.408125-20.626875 0-37.408125-16.779375-37.408125-37.408125z m37.408125 450.219375c-20.626875 0-37.408125-16.783125-37.408125-37.41s16.78125-37.408125 37.408125-37.408125c20.626875 0 37.408125 16.78125 37.408125 37.408125s-16.779375 37.41-37.408125 37.41z m296.80125-245.904375c0 9.076875 1.84875 17.73 5.188125 25.603125L562.26875 887.165c-9.294375-12.5475-22.9425-21.675-38.694375-25.15125v-284.38125c29.4675-6.504375 51.58875-32.81625 51.58875-64.213125 0-5.78625-0.7575-11.398125-2.169375-16.7475l251.3475-145.115625c9.41625 9.89625 21.87 16.865625 35.855625 19.40625v282.075c-30.66375 5.565-54.001875 32.44875-54.001875 64.696875z m65.77125 37.408125c-20.626875 0-37.408125-16.78125-37.408125-37.408125s16.78125-37.41 37.408125-37.41 37.408125 16.783125 37.408125 37.41-16.779375 37.408125-37.408125 37.408125z" p-id="20338" fill="#ab97ef"></path></svg>